<svg height="512pt" viewBox="0 -4 512.1035 512" width="512pt" xmlns="http://www.w3.org/2000/svg"><path d="m290.238281 281.503906c15.890625 9.472656 48.359375 59.734375 48.359375 59.734375 26.042969-8.535156 36.972656-51.199219 36.972656-51.199219" fill="#2c2f38"/><path d="m45.929688 398.324219c7.144531-10.980469 14.984374-21.5 23.464843-31.488281-5.203125-50.855469 17.921875-105.300782 45.824219-146.941407 24.664062-37.488281 60.265625-66.476562 101.972656-83.03125 30.382813-11.691406 62.78125-17.230469 95.320313-16.296875 1.023437 0 2.046875.085938 3.070312.085938 65.964844 2.132812 187.988281 12.371094 187.988281 101.117187 0 38.914063-101.117187 84.992188-178.261718 73.21875h-.082032l-58.625-12.546875c-100.609374-7.421875-162.476562 92.929688-162.476562 92.929688 8.765625 7.777344 16.792969 16.34375 23.980469 25.601562zm0 0" fill="#2c2f38"/><g fill="#d1d4d1"><path d="m266.601562 282.441406c-100.609374-7.421875-162.476562 92.929688-162.476562 92.929688s-8.617188-51.199219 43.4375-93.867188c52.050781-42.667968 112.894531-17.066406 112.894531-17.066406 2.890625 5.679688 4.960938 11.742188 6.144531 18.003906zm0 0"/><path d="m503.570312 221.769531c0 38.914063-101.117187 84.992188-178.261718 73.21875 7.800781-11.628906 12.394531-25.113281 13.3125-39.085937 0 0 34.730468-42.664063 78.082031-34.132813 28.742187 4.960938 58.125 4.960938 86.867187 0zm0 0"/><path d="m144.183594 247.183594c-3.152344-.003906-6.046875-1.742188-7.527344-4.527344-1.480469-2.78125-1.308594-6.152344.453125-8.769531 5.597656-8.34375 11.785156-16.277344 18.515625-23.738281 2.007812-2.390626 5.164062-3.492188 8.226562-2.875 3.0625.621093 5.539063 2.863281 6.460938 5.847656s.136719 6.234375-2.042969 8.46875c-6.175781 6.863281-11.855469 14.15625-16.996093 21.820312-1.585938 2.363282-4.246094 3.777344-7.089844 3.773438zm38.066406-42.105469c-3.613281.003906-6.835938-2.265625-8.046875-5.664063-1.214844-3.402343-.152344-7.199218 2.644531-9.480468 7.507813-6.125 15.480469-11.660156 23.84375-16.554688 8.433594-4.929687 17.234375-9.207031 26.324219-12.800781 2.851563-1.191406 6.121094-.75 8.554687 1.15625 2.433594 1.90625 3.644532 4.976563 3.167969 8.03125-.472656 3.050781-2.5625 5.609375-5.460937 6.683594-8.273438 3.269531-16.285156 7.164062-23.96875 11.648437-7.605469 4.445313-14.851563 9.476563-21.675782 15.042969-1.519531 1.25-3.417968 1.933594-5.382812 1.9375zm0 0"/></g><path d="m312.542969 127.902344s-11.332031-84.949219-61.644531-126.113282c-2.796876-2.113281-6.597657-2.316406-9.605469-.507812-3.003907 1.808594-4.605469 5.265625-4.046875 8.726562 2.910156 28.160157 4.097656 81.773438-20.191406 126.429688zm0 0" fill="#2c2f38"/><path d="m338.597656 255.902344s0 59.734375-78.148437 85.335937c0 0 17.363281-42.667969 0-76.800781zm0 0" fill="#2c2f38"/><path d="m409.703125 170.945312c0-16.691406-79.871094-25.035156-97.621094-8.34375-17.746093 16.691407 17.75 25.035157 44.375 25.035157s53.246094 0 53.246094-16.691407zm0 0" fill="#d1d4d1"/><path d="m503.570312 426.570312c-2.261718 0-4.433593-.898437-6.03125-2.5l-17.066406-17.066406c-6.097656-6.082031-15.96875-6.082031-22.066406 0-12.765625 12.738282-33.4375 12.738282-46.199219 0-6.179687-5.886718-15.890625-5.886718-22.070312 0-12.761719 12.738282-33.433594 12.738282-46.199219 0-6.175781-5.886718-15.890625-5.886718-22.066406 0-12.765625 12.738282-33.433594 12.738282-46.199219 0-6.097656-6.082031-15.96875-6.082031-22.066406 0-12.765625 12.738282-33.433594 12.738282-46.199219 0-6.179688-5.886718-15.890625-5.886718-22.066406 0-12.765625 12.738282-33.4375 12.738282-46.203125 0-6.097657-6.082031-15.96875-6.082031-22.066407 0-12.765624 12.738282-33.433593 12.738282-46.199218 0-6.097656-6.082031-15.96875-6.082031-22.066406 0-12.765626 12.738282-33.433594 12.738282-46.199219 0-2.21875-2.140625-3.109375-5.316406-2.328125-8.296875.78125-2.984375 3.113281-5.316406 6.09375-6.097656 2.984375-.78125 6.15625.109375 8.300781 2.328125 6.097656 6.082031 15.96875 6.082031 22.066406 0 12.765625-12.738281 33.433594-12.738281 46.199219 0 6.097656 6.082031 15.96875 6.082031 22.066406 0 12.765625-12.738281 33.4375-12.738281 46.199219 0 6.101563 6.082031 15.96875 6.082031 22.070313 0 12.925781-12.335938 33.269531-12.335938 46.199218 0 6.097656 6.082031 15.96875 6.082031 22.066406 0 12.765626-12.738281 33.433594-12.738281 46.199219 0 6.175781 5.886719 15.890625 5.886719 22.066407 0 12.765624-12.738281 33.433593-12.738281 46.199218 0 6.097656 6.082031 15.96875 6.082031 22.066406 0 12.765626-12.738281 33.4375-12.738281 46.199219 0 6.101563 6.082031 15.972657 6.082031 22.070313 0 12.765625-12.738281 33.433594-12.738281 46.199218 0l17.066407 17.066406c2.4375 2.441406 3.167969 6.109375 1.847656 9.300782-1.320313 3.1875-4.429687 5.265624-7.882813 5.265624zm0 0" fill="#285680"/><path d="m503.570312 469.238281c-2.261718 0-4.433593-.902343-6.03125-2.5l-17.066406-17.066406c-6.097656-6.082031-15.96875-6.082031-22.066406 0-12.765625 12.738281-33.4375 12.738281-46.199219 0-6.179687-5.890625-15.890625-5.890625-22.070312 0-12.761719 12.738281-33.433594 12.738281-46.199219 0-6.175781-5.890625-15.890625-5.890625-22.066406 0-12.765625 12.738281-33.433594 12.738281-46.199219 0-6.097656-6.082031-15.96875-6.082031-22.066406 0-12.765625 12.738281-33.433594 12.738281-46.199219 0-6.179688-5.890625-15.890625-5.890625-22.066406 0-12.765625 12.738281-33.4375 12.738281-46.203125 0-6.097657-6.082031-15.96875-6.082031-22.066407 0-12.765624 12.738281-33.433593 12.738281-46.199218 0-6.097656-6.082031-15.96875-6.082031-22.066406 0-12.765626 12.738281-33.433594 12.738281-46.199219 0-2.21875-2.144531-3.109375-5.316406-2.328125-8.300781s3.113281-5.3125 6.09375-6.09375c2.984375-.78125 6.15625.109375 8.300781 2.328125 6.097656 6.082031 15.96875 6.082031 22.066406 0 12.765625-12.742188 33.433594-12.742188 46.199219 0 6.097656 6.082031 15.96875 6.082031 22.066406 0 12.765625-12.742188 33.4375-12.742188 46.199219 0 6.101563 6.082031 15.96875 6.082031 22.070313 0 12.925781-12.339844 33.269531-12.339844 46.199218 0 6.097656 6.082031 15.96875 6.082031 22.066406 0 12.765626-12.742188 33.433594-12.742188 46.199219 0 6.175781 5.886719 15.890625 5.886719 22.066407 0 12.765624-12.742188 33.433593-12.742188 46.199218 0 6.097656 6.082031 15.96875 6.082031 22.066406 0 12.765626-12.742188 33.4375-12.742188 46.199219 0 6.101563 6.082031 15.972657 6.082031 22.070313 0 12.765625-12.742188 33.433594-12.742188 46.199218 0l17.066407 17.066406c2.4375 2.441406 3.167969 6.109375 1.847656 9.296875s-4.429687 5.269531-7.882813 5.269531zm0 0" fill="#285680"/><path d="m495.039062 503.371094c-2.261718 0-4.433593-.898438-6.035156-2.5l-8.53125-8.535156c-6.097656-6.082032-15.96875-6.082032-22.066406 0-12.765625 12.742187-33.4375 12.742187-46.199219 0-6.179687-5.886719-15.890625-5.886719-22.070312 0-12.761719 12.742187-33.433594 12.742187-46.199219 0-6.175781-5.886719-15.890625-5.886719-22.066406 0-12.765625 12.742187-33.433594 12.742187-46.199219 0-6.097656-6.082032-15.96875-6.082032-22.066406 0-12.765625 12.742187-33.433594 12.742187-46.199219 0-6.097656-6.082032-15.96875-6.082032-22.066406 0-12.765625 12.742187-33.4375 12.742187-46.203125 0-6.097657-6.082032-15.96875-6.082032-22.066407 0-12.765624 12.742187-33.433593 12.742187-46.199218 0-6.097656-6.082032-15.96875-6.082032-22.066406 0-12.929688 12.339843-33.269532 12.339843-46.199219 0-2.21875-2.140626-3.109375-5.3125-2.328125-8.296876.78125-2.984374 3.113281-5.3125 6.09375-6.09375 2.984375-.78125 6.15625.109376 8.300781 2.324219 6.097656 6.082031 15.96875 6.082031 22.066406 0 12.929688-12.335937 33.269531-12.335937 46.199219 0 6.179688 5.890625 15.890625 5.890625 22.066406 0 12.765625-12.738281 33.4375-12.738281 46.199219 0 6.179687 5.890625 15.890625 5.890625 22.070313 0 12.761718-12.738281 33.433593-12.738281 46.199218 0 6.097656 6.082031 15.96875 6.082031 22.066406 0 12.765626-12.738281 33.433594-12.738281 46.199219 0 6.175781 5.890625 15.890625 5.890625 22.066407 0 12.765624-12.738281 33.433593-12.738281 46.199218 0 6.097656 6.082031 15.96875 6.082031 22.066406 0 12.765626-12.738281 33.4375-12.738281 46.199219 0 6.101563 6.082031 15.972657 6.082031 22.070313 0 12.925781-12.335937 33.269531-12.335937 46.199218 0l8.53125 8.535157c2.441407 2.441406 3.171876 6.109374 1.851563 9.296874s-4.433594 5.269532-7.882813 5.269532zm0 0" fill="#285680"/></svg>