<?xml version="1.0" encoding="iso-8859-1"?>
<!-- Generator: Adobe Illustrator 19.0.0, SVG Export Plug-In . SVG Version: 6.00 Build 0)  -->
<svg version="1.1" id="Capa_1" xmlns="http://www.w3.org/2000/svg" xmlns:xlink="http://www.w3.org/1999/xlink" x="0px" y="0px"
	 viewBox="0 0 378.267 378.267" style="enable-background:new 0 0 378.267 378.267;" xml:space="preserve">
<g id="XMLID_233_">
	<path id="XMLID_46_" style="fill:#DF936F;" d="M160.088,327.699l-3.883-1.624c-6.969-2.916-10.255-10.929-7.34-17.898
		l16.483-39.402l29.121,12.182l-16.483,39.402C175.071,327.328,167.057,330.615,160.088,327.699z"/>
	<path id="XMLID_45_" style="fill:#DB8269;" d="M212.078,329.071h-4.209c-7.555,0-13.679-6.124-13.679-13.679v-53.069h31.566v53.069
		C225.757,322.947,219.632,329.071,212.078,329.071z"/>
	<path id="XMLID_44_" style="fill:#DF936F;" d="M61.416,327.699l-3.883-1.624c-6.969-2.916-10.255-10.929-7.34-17.898l16.483-39.402
		l29.121,12.182l-16.483,39.402C76.399,327.328,68.385,330.615,61.416,327.699z"/>
	<path id="XMLID_43_" style="fill:#DF936F;" d="M113.406,329.071h-4.209c-7.555,0-13.679-6.124-13.679-13.679v-42.71h31.566v42.71
		C127.085,322.947,120.96,329.071,113.406,329.071z"/>
	<path id="XMLID_235_" style="fill:#DF936F;" d="M318.463,324.478c-22.43-8-35.93-20.46-55.87-33.35
		c-10.28-6.65-34.26-25.01-58.08-18.45c-6.34-3.12,12.17,30.76-124.31,10.36c-30.04-4.49-52.982-22.917-61.34-36.38
		c-18.067-29.102-25.521-62.36-11.74-97.57c14.598-37.3,63.74-88.66,67.39-91.11c6.23-7.87,18.04-13.19,31.59-13.19
		c20.02,0,36.26,11.59,36.26,25.9c0,14.3-16.24,25.89-36.26,25.89c-4.48,0-8.76-0.58-12.72-1.64c-8.77,3.54-19.1,14.46-25.5,19.77
		c-20.53,17.05-33.75,45.67-9.67,66.31c19.32,16.56,37.43-2.89,56.54-14.79c4.19-2.6,8.42-4.84,12.72-6.26
		c2.26-0.74,4.48-1.4,6.67-1.95c2.78-0.72,5.52-1.29,8.2-1.72c6.9-1.11,13.5-1.32,19.84-0.75c3.01,0.27,5.96,0.71,8.85,1.32
		c3.7,0.77,7.32,1.81,10.85,3.09c4.14,1.49,8.17,3.31,12.11,5.41c1.83,0.96,3.63,2,5.42,3.08c5.29,3.22,10.43,6.92,15.46,11
		c4.9,3.63,9.75,7.76,14.55,12.27c30.62,28.81,59.17,73.09,86.24,101.12c17.5,18.12,37.04,32.68,61.39,39.56
		C386.103,335.038,342.353,332.998,318.463,324.478z"/>
	<path id="XMLID_236_" style="fill:#DB8269;" d="M377.052,332.399c-24.349-6.877-43.885-21.438-61.387-39.556
		c-31.31-32.421-64.599-86.593-100.794-113.39c-10.002-8.123-20.45-14.746-31.658-19.001v126.383
		c22.327-5.253,17.608-15.972,21.299-14.153c23.825-6.561,47.796,11.799,58.086,18.443c19.932,12.895,33.435,25.349,55.861,33.351
		C342.351,333.001,386.105,335.04,377.052,332.399z"/>
	<polygon id="XMLID_237_" style="fill:#DB8269;" points="183.213,276.249 183.213,307.864 194.469,280.958 	"/>
	<path id="XMLID_238_" style="fill:#FFE477;" d="M199.413,168.448c-0.48,1.96-1.01,3.85-1.58,5.66c-0.12,0.37-0.23,0.73-0.35,1.09
		c-0.03,0.08-0.05,0.15-0.07,0.22c-0.23,0.68-0.46,1.35-0.7,2.01c-0.23,0.63-0.46,1.25-0.7,1.86c0,0.01,0,0.01,0,0.01
		c-0.06,0.14-0.12,0.28-0.17,0.42c-0.13,0.33-0.27,0.65-0.4,0.97c-0.29,0.68-0.58,1.33-0.88,1.97c-0.12,0.27-0.25,0.53-0.38,0.8
		c-0.17,0.36-0.35,0.71-0.53,1.05c-0.53,1.03-1.08,2.01-1.66,2.91c-0.18,0.3-0.38,0.59-0.57,0.88c-0.58,0.85-1.17,1.64-1.79,2.35
		c-0.15,0.17-0.3,0.34-0.45,0.5c-0.14,0.16-0.29,0.32-0.45,0.47c-0.19,0.19-0.38,0.38-0.58,0.56c-0.58,0.54-1.17,1-1.78,1.39
		c-0.15,0.09-0.29,0.18-0.43,0.26c-0.66,0.38-1.33,0.67-2.01,0.86c-0.1,0.03-0.21,0.06-0.32,0.08c-0.24,0.06-0.49,0.1-0.73,0.13
		c-0.12,0.02-0.25,0.03-0.38,0.04c-0.16,0.01-0.33,0.02-0.5,0.02c-0.04,0-0.08-0.01-0.12-0.01c-3.17-0.06-6.16-2.27-8.85-6
		c-2.68-3.74-5.04-8.99-6.95-15.12c-1.18-3.81-2.18-7.95-2.97-12.28v-0.02c-0.35-1.96-0.66-3.95-0.93-5.98
		c3.01,0.27,5.96,0.71,8.85,1.32c3.7,0.77,7.32,1.81,10.85,3.09c4.14,1.49,8.17,3.31,12.11,5.41
		C195.823,166.328,197.623,167.368,199.413,168.448z"/>
	<path id="XMLID_239_" style="fill:#F6D563;" d="M229.423,191.718c-3.8,10.9-9.12,18.41-15.03,18.41
		c-7.95,0-14.87-13.65-18.38-30.83c0,0,0,0,0-0.01c-0.45-2.16-0.84-4.39-1.17-6.65v-0.02c-0.35-2.38-0.64-4.81-0.85-7.25
		c1.83,0.96,3.63,2,5.42,3.08c5.29,3.22,10.43,6.92,15.46,11C219.773,183.078,224.623,187.208,229.423,191.718z"/>
	<path id="XMLID_240_" style="fill:#FFE477;" d="M171.034,156.868c-1.24,6.26-2.93,12.07-4.95,16.96
		c-3.65,8.85-8.4,14.69-13.6,14.69c-5.48,0-10.45-6.45-14.17-16.05c-0.66-1.69-1.28-3.48-1.85-5.35c-0.88-2.86-1.66-5.92-2.32-9.1
		c2.78-0.72,5.52-1.29,8.2-1.72c6.9-1.11,13.5-1.32,19.84-0.75C165.193,155.818,168.143,156.258,171.034,156.868z"/>
	<path id="XMLID_241_" style="fill:#FFE477;" d="M142.343,156.298c-0.01,0.05-0.01,0.1-0.02,0.15v0.02c-0.87,5.86-2.25,11.4-4.01,16
		c-2.82,7.36-6.6,12.32-10.77,12.32c-4.86,0-9.21-6.74-12.11-16.17c-0.24-0.78-0.47-1.58-0.68-2.39c4.19-2.6,8.42-4.84,12.72-6.26
		c2.26-0.74,4.48-1.4,6.67-1.95C136.923,157.298,139.663,156.728,142.343,156.298z"/>
	<path id="XMLID_242_" style="fill:#F6D563;" d="M199.413,168.448c-0.48,1.96-1.01,3.85-1.58,5.66c-0.12,0.37-0.23,0.73-0.35,1.09
		c-0.03,0.08-0.05,0.15-0.07,0.22c-0.23,0.68-0.46,1.35-0.7,2.01c-0.23,0.63-0.46,1.25-0.7,1.86c0,0.01,0,0.01,0,0.01
		c-0.06,0.14-0.12,0.28-0.17,0.42c-0.13,0.33-0.27,0.65-0.4,0.97c-0.29,0.68-0.58,1.33-0.88,1.97c-0.12,0.27-0.25,0.53-0.38,0.8
		c-0.17,0.36-0.35,0.71-0.53,1.05c-0.53,1.03-1.08,2.01-1.66,2.91c-0.18,0.3-0.38,0.59-0.57,0.88c-0.58,0.85-1.17,1.64-1.79,2.35
		c-0.15,0.17-0.3,0.34-0.45,0.5c-0.14,0.16-0.29,0.32-0.45,0.47c-0.19,0.19-0.38,0.38-0.58,0.56c-0.58,0.54-1.17,1-1.78,1.39
		c-0.15,0.09-0.29,0.18-0.43,0.26c-0.66,0.38-1.33,0.67-2.01,0.86c-0.1,0.03-0.21,0.06-0.32,0.08c-0.24,0.06-0.49,0.1-0.73,0.13
		c-0.12,0.02-0.25,0.03-0.38,0.04c-0.16,0.01-0.33,0.02-0.5,0.02c-0.04,0-0.08-0.01-0.12-0.01v-34.99
		c4.14,1.49,8.17,3.31,12.11,5.41C195.823,166.328,197.623,167.368,199.413,168.448z"/>
	<path id="XMLID_243_" d="M107.222,54.788c-3.309,0-6,2.691-6,6s2.691,6,6,6s6-2.691,6-6S110.53,54.788,107.222,54.788z"/>
	<circle id="XMLID_244_" style="fill:#FFE477;" cx="31.222" cy="204.788" r="10"/>
	<circle id="XMLID_245_" style="fill:#FFE477;" cx="16.222" cy="219.788" r="5"/>
	<circle id="XMLID_307_" style="fill:#FFE477;" cx="41.222" cy="234.788" r="10"/>
</g>
<g>
</g>
<g>
</g>
<g>
</g>
<g>
</g>
<g>
</g>
<g>
</g>
<g>
</g>
<g>
</g>
<g>
</g>
<g>
</g>
<g>
</g>
<g>
</g>
<g>
</g>
<g>
</g>
<g>
</g>
</svg>
