<?xml version="1.0" encoding="iso-8859-1"?>
<!-- Generator: Adobe Illustrator 19.0.0, SVG Export Plug-In . SVG Version: 6.00 Build 0)  -->
<svg version="1.1" id="Capa_1" xmlns="http://www.w3.org/2000/svg" xmlns:xlink="http://www.w3.org/1999/xlink" x="0px" y="0px"
	 viewBox="0 0 359.37 359.37" style="enable-background:new 0 0 359.37 359.37;" xml:space="preserve">
<g id="XMLID_823_">
	<polygon id="XMLID_824_" style="fill:#8FC397;" points="164.927,112.72 155.806,84.648 179.685,67.299 203.564,84.648 
		194.443,112.72 	"/>
	<polygon id="XMLID_48_" style="fill:#87B98F;" points="206.924,118.353 208.51,94.521 231.666,88.666 244.39,108.879 
		229.098,127.226 	"/>
	<polygon id="XMLID_47_" style="fill:#87B98F;" points="240.809,139.548 249.495,117.299 273.339,118.684 279.39,141.789 
		259.286,154.684 	"/>
	<polygon id="XMLID_46_" style="fill:#87B98F;" points="269.39,167.742 282.775,154.112 299.874,162.629 297.057,181.524 
		278.217,184.684 	"/>
	<polygon id="XMLID_45_" style="fill:#8FC397;" points="151.856,124.371 150.27,100.539 127.114,94.684 114.39,114.897 
		129.681,133.244 	"/>
	<path id="XMLID_44_" style="fill:#ABD1AD;" d="M114.435,314.251l-3.322-0.947c-5.964-1.7-9.42-7.912-7.721-13.875l13.283-58.541
		l24.919,7.101l-13.283,58.541C126.611,312.494,120.399,315.951,114.435,314.251z"/>
	<path id="XMLID_43_" style="fill:#ABD1AD;" d="M149.147,314.524h-3.455c-6.201,0-11.228-5.027-11.228-11.228l3.674-59.884h25.911
		l-3.674,59.884C160.375,309.497,155.348,314.524,149.147,314.524z"/>
	<path id="XMLID_42_" style="fill:#98C79C;" d="M247.914,314.251l3.322-0.947c5.964-1.7,9.42-7.912,7.721-13.875l-13.283-58.541
		l-24.919,7.101l13.283,58.541C235.738,312.494,241.95,315.951,247.914,314.251z"/>
	<path id="XMLID_41_" style="fill:#98C79C;" d="M213.203,314.524h3.455c6.201,0,11.228-5.027,11.228-11.228l-3.674-59.884H198.3
		l3.674,59.884C201.975,309.497,207.002,314.524,213.203,314.524z"/>
	<path id="XMLID_825_" style="fill:#ABD1AD;" d="M357.184,137.312c-3.596-0.423,6.624,48.939-37.499,52.373
		c-28.787,2.241-84.731-82.386-138.503-82.386c-42.306,0-67.769,43.147-89.833,46.677c28.526-49.385,3.685-24.377,4.359-25.27
		c0.71-0.94-23.724,27.613-0.448-31.62c4.854-12.352-1.034-5.994-18.882,6.593c-11.23,7.919,12.658-34.534,14.656-46.655
		c1.999-12.121-19.316,23.202-30.561,31.439c-7.503,5.496,6.275-38.537,5.585-43.488c-0.69-4.951-23.427,54.8-29.683,93.44
		c-1.986,12.269-4.236,25.769-10.747,39.783c-1.575,3.389-5.88,5-9.648,8.876c-9.533,9.807-2.519,16.362,1.032,18.773
		c-6.328,44.505-11.679,9.984-15.831,18.837c-4.406,9.394,3.208,49.75,27.854,43.887c11.343-2.698,44.855-29.384,44.855-29.384
		s5.563-4.636,18.542,0c12.979,4.635,24.457,34.734,95.989,35.497c40.472,0.431,77.468-28.384,90.968-40
		c14.333-12.333,41-24.5,59.043-41.118C362.111,171.757,361.169,137.78,357.184,137.312z"/>
	<circle id="XMLID_826_" cx="41.275" cy="207.185" r="9.249"/>
	<polygon id="XMLID_827_" style="fill:#87B98F;" points="179.685,67.299 179.685,112.72 194.443,112.72 203.564,84.648 	"/>
	<path id="XMLID_828_" style="fill:#98C79C;" d="M357.184,137.312c-3.596-0.423-7.999,39.873-42.248,46.25
		c-28.386,5.285-79.982-76.262-133.754-76.262c-0.502,0-1,0.012-1.497,0.024V274.43c2.811,0.133,5.716,0.221,8.737,0.254
		c40.472,0.431,77.468-28.384,90.968-40c14.333-12.333,41-24.5,59.043-41.118C362.111,171.757,361.169,137.78,357.184,137.312z"/>
	<g id="XMLID_829_">
		<circle id="XMLID_830_" style="fill:#D570A7;" cx="217.185" cy="202.185" r="12.5"/>
		<circle id="XMLID_35_" style="fill:#DA88B4;" cx="157.185" cy="227.185" r="12.5"/>
		<circle id="XMLID_831_" style="fill:#D570A7;" cx="197.185" cy="239.685" r="12.5"/>
		<circle id="XMLID_832_" style="fill:#D570A7;" cx="190.935" cy="208.435" r="6.25"/>
		<circle id="XMLID_833_" style="fill:#DA88B4;" cx="165.935" cy="195.935" r="6.25"/>
	</g>
</g>
<g>
</g>
<g>
</g>
<g>
</g>
<g>
</g>
<g>
</g>
<g>
</g>
<g>
</g>
<g>
</g>
<g>
</g>
<g>
</g>
<g>
</g>
<g>
</g>
<g>
</g>
<g>
</g>
<g>
</g>
</svg>
