<?xml version="1.0" encoding="iso-8859-1"?>
<!-- Generator: Adobe Illustrator 19.0.0, SVG Export Plug-In . SVG Version: 6.00 Build 0)  -->
<svg version="1.1" id="Layer_1" xmlns="http://www.w3.org/2000/svg" xmlns:xlink="http://www.w3.org/1999/xlink" x="0px" y="0px"
	 viewBox="0 0 512 512" style="enable-background:new 0 0 512 512;" xml:space="preserve">
<path style="fill:#589B38;" d="M214.94,477.618c0,0,36.847,12.263,82.134,8.877l35.277-31.048l-44.979-70.23l-102.447,10.189
	l4.26,42.681"/>
<path style="fill:#66B246;" d="M340.625,370.496c29.781,10.771,88.42,9.99,85.958-39.392c-4.249-85.259,34.326-87.84,34.326-87.84
	c-36.398,36.398,3.302,51.489,3.302,125.8c0,51.844-62,86.857-114.863,104.447"/>
<path style="fill:#75CC54;" d="M507.206,161.424c-5.397,9.351-14.796,15.577-26.609,18.619
	c-21.992,5.682-52.365,0.391-80.963-16.122c0,0-5.693,1.349-12.642,4.9c-10.819,5.54-24.656,16.417-24.656,35.889
	c0,31.971,39.961,74.595,39.961,103.902c0,23.91-23.058,52.259-56.153,61.87v0.012l2.722,32.077
	c9.008,3.22,15.471,11.801,15.471,21.921c0,8.735-4.806,16.323-11.896,20.324l3.243,38.292h6.652
	c15.447,0,27.982,12.523,27.982,27.97H297.07v-70.594c-13.198,5.137-27.141,7.706-41.061,7.706c-7.99,0-15.979-0.84-23.815-2.533
	c0,0-0.012,0-0.012-0.012c-5.847-1.243-11.612-2.971-17.246-5.161v70.594h-93.249c0-7.717,3.125-14.713,8.191-19.779
	c5.066-5.054,12.05-8.191,19.779-8.191h6.664l3.243-38.292c-7.102-4.001-11.896-11.588-11.896-20.324
	c0-1.74,0.189-3.433,0.568-5.066c1.728-7.848,7.445-14.192,14.902-16.855l2.391-28.23l0.32-3.847v-0.012
	c-33.095-9.611-56.153-37.96-56.153-61.87c0-29.308,39.961-71.931,39.961-103.902c0-31.959-37.285-40.789-37.285-40.789
	c-6.321,3.646-12.713,6.747-19.104,9.292l-0.059,0.036c-10.89,4.356-21.708,7.114-31.923,8.309
	c-25.425,2.983-47.063-3.788-56.496-20.134c-15.435-26.763,7.682-69.019,51.631-94.397c27.094-15.648,56.224-21.708,77.814-17.376
	c9.067,1.823,16.808,5.48,22.501,11.032c14.038,13.695,28.148,44.743,32.764,58.97h0.012c-1.764,8.605-2.699,17.708-2.699,27.118
	c0,2.036,0.047,4.06,0.13,6.06c0.793,18.406,5.184,35.439,12.192,49.702v0.012c0.296,4.32,0.45,8.57,0.45,12.724
	c-0.012,15.08-2.107,28.917-7.291,40.067c-17.518,37.664,9.895,42.505,30.728,41.393l2.687-50.105l0.616-11.387l0.012-0.012
	c8.984,6.06,19.045,9.446,29.663,9.446c10.617,0,20.679-3.385,29.674-9.434l0.616,11.399l2.699,50.093
	c2.332,0.13,4.758,0.178,7.185,0.118c19.235-0.509,39.096-8.073,23.543-41.511c-5.184-11.15-7.28-24.987-7.291-40.067
	c0-4.155,0.154-8.404,0.45-12.724v-0.012c7.007-14.263,11.399-31.296,12.192-49.702c0.083-2,0.13-4.024,0.13-6.06
	c0-9.41-0.935-18.513-2.699-27.118h0.012c4.616-14.228,18.726-45.275,32.764-58.97c13.375-13.044,38.043-15.624,64.758-8.511
	c11.718,3.101,23.827,8.084,35.557,14.855C499.536,92.405,522.653,134.662,507.206,161.424z"/>
<g>
	<path style="fill:#66B246;" d="M165.854,370.496v-0.012c-33.095-9.611-56.153-37.96-56.153-61.87
		c0-29.308,39.961-71.931,39.961-103.902c0-31.959-37.285-40.789-37.285-40.789c-6.321,3.646-12.713,6.747-19.104,9.292
		l33.036-17.921c0,0,44.672,8.972,44.672,55.135s-59.716,109.655,6.238,162.541L165.854,370.496z"/>
	<path style="fill:#66B246;" d="M61.289,181.56c-25.425,2.983-47.063-3.788-56.496-20.134
		c-15.435-26.763,7.682-69.019,51.631-94.397c27.094-15.648,56.224-21.708,77.814-17.376
		C134.238,49.652,13.149,104.172,61.289,181.56z"/>
	<path style="fill:#66B246;" d="M232.186,445.647c-5.847-1.243-11.612-2.971-17.246-5.161v70.594h-93.249
		c0-7.717,3.125-14.713,8.191-19.779c5.066-5.054,12.05-8.191,19.779-8.191h6.664l3.243-38.292
		c-7.102-4.001-11.896-11.588-11.896-20.324c0-1.74,0.189-3.433,0.568-5.066c1.728-7.848,7.445-14.192,14.902-16.855l2.706-32.09
		l11.368,2.487C186.852,419.95,230.813,444.89,232.186,445.647z"/>
</g>
<path style="fill:#75CC54;" d="M325.199,146.772c0,20.726-4.545,39.949-12.322,55.762v0.012
	c-6.865,13.991-16.24,25.319-27.201,32.693c-8.996,6.049-19.057,9.434-29.674,9.434s-20.679-3.385-29.663-9.446
	c-10.961-7.362-20.335-18.69-27.201-32.681v-0.012c-7.777-15.814-12.322-35.036-12.322-55.762c0-9.41,0.935-18.513,2.699-27.118
	c8.297-40.884,34.93-70.783,66.486-70.783c5.125,0,10.108,0.781,14.914,2.284c24.81,7.706,44.636,34.243,51.584,68.499
	C324.264,128.259,325.199,137.362,325.199,146.772z"/>
<g>
	<path style="fill:#66B246;" d="M199.134,202.545c0.296,4.32,0.45,8.57,0.45,12.724c-0.154-0.296-0.308-0.592-0.45-0.888v-0.012
		c-7.777-15.814-12.322-35.036-12.322-55.762c0-1.941,0.036-3.871,0.13-5.776c0.793,18.406,5.184,35.439,12.192,49.702V202.545z"/>
	<path style="fill:#66B246;" d="M285.671,235.238l0.616,11.399c-0.201,0.154-0.414,0.296-0.616,0.438
		c-8.996,6.049-19.057,9.434-29.674,9.434c-10.617,0-20.679-3.385-29.663-9.446c-0.213-0.142-0.426-0.284-0.627-0.438l0.616-11.387
		l0.012-0.012c8.984,6.06,19.045,9.446,29.663,9.446C266.614,244.672,276.675,241.286,285.671,235.238z"/>
	<path style="fill:#66B246;" d="M325.194,158.607c0,20.726-4.545,39.949-12.322,55.762v0.012c-0.142,0.296-0.296,0.592-0.45,0.888
		c0-4.155,0.154-8.404,0.45-12.724v-0.012c7.007-14.263,11.399-31.296,12.192-49.702
		C325.158,154.737,325.194,156.666,325.194,158.607z"/>
	<path style="fill:#66B246;" d="M288.986,296.73l7.19,0.12c19.235-0.509,39.096-8.073,23.543-41.511
		c-6.617-14.228-8.203-32.835-6.842-52.791v-0.012c7.777-15.814,12.322-35.036,12.322-55.762c0-9.41-0.935-18.513-2.699-27.118
		h0.012c4.616-14.228,18.726-45.275,32.764-58.97c13.375-13.044,38.043-15.624,64.758-8.511c-1.267,0.296-2.616,0.58-4.036,0.829
		C349.712,64.84,321.456,176.93,342.61,247.124c18.832,62.49-16.795,75.813-37.962,78.4c-7.585,0.927-14.364-4.763-14.776-12.393
		L288.986,296.73"/>
	<path style="fill:#66B246;" d="M226.327,235.239l-3.302,61.491l-1.574,29.201l0,0c10.899,0,19.934-8.447,20.667-19.321
		l4.238-62.885L226.327,235.239z"/>
	<path style="fill:#66B246;" d="M256.002,244.673c-10.617,0-20.679-3.385-29.663-9.446c-10.961-7.362-20.335-18.69-27.201-32.681
		v-0.012c-7.777-15.814-12.322-35.036-12.322-55.762c0-9.41,0.935-18.513,2.699-27.118c8.297-40.884,34.93-70.783,66.486-70.783
		c5.125,0,10.108,0.781,14.914,2.284C270.916,51.155,129.357,165.768,256.002,244.673z"/>
</g>
<g>
	<path style="fill:#666666;" d="M49.768,118.73c-0.563,0-1.135-0.08-1.703-0.251c-3.131-0.939-4.907-4.239-3.968-7.369l3.996-13.32
		c0.94-3.13,4.234-4.91,7.369-3.968c3.131,0.939,4.907,4.239,3.968,7.369l-3.996,13.32C54.665,117.074,52.314,118.73,49.768,118.73z
		"/>
	<path style="fill:#666666;" d="M81.737,130.718c-0.563,0-1.135-0.08-1.703-0.251c-3.131-0.939-4.907-4.239-3.968-7.369l3.996-13.32
		c0.939-3.131,4.235-4.909,7.369-3.968c3.131,0.939,4.907,4.239,3.968,7.369l-3.996,13.32
		C86.635,129.062,84.283,130.718,81.737,130.718z"/>
	<path style="fill:#666666;" d="M227.298,159.32c-3.268,0-5.918-2.65-5.918-5.918v-22.084c0-3.268,2.65-5.918,5.918-5.918
		c3.268,0,5.918,2.65,5.918,5.918v22.084C233.216,156.67,230.567,159.32,227.298,159.32z"/>
	<path style="fill:#666666;" d="M284.715,159.32c-3.268,0-5.918-2.65-5.918-5.918v-22.084c0-3.268,2.65-5.918,5.918-5.918
		s5.918,2.65,5.918,5.918v22.084C290.633,156.67,287.983,159.32,284.715,159.32z"/>
</g>
<g>
	<path style="fill:#EFF9B4;" d="M63.617,63.672c-0.295-0.653-0.384-0.955-0.542-1.393c-0.137-0.4-0.269-0.795-0.385-1.18
		c-0.24-0.775-0.453-1.534-0.645-2.292c-0.386-1.515-0.711-3.015-0.966-4.52c-0.523-3.005-0.824-6.012-0.894-9.015
		c-0.161-5.996,0.632-11.972,2.334-17.561c1.699-5.596,4.37-10.758,7.678-15.248c3.345-4.478,7.277-8.312,11.537-11.542
		c-3.218,4.277-5.831,8.902-7.649,13.683c-1.787,4.797-2.745,9.747-2.817,14.605s0.658,9.615,2.087,14.097
		c0.703,2.241,1.581,4.415,2.593,6.482c0.498,1.036,1.046,2.038,1.613,2.996c0.282,0.479,0.575,0.946,0.869,1.383
		c0.147,0.224,0.294,0.43,0.438,0.63c0.124,0.16,0.327,0.453,0.341,0.386c2.345,4.306,0.754,9.698-3.552,12.041
		C71.352,69.567,65.961,67.978,63.617,63.672z"/>
	<path style="fill:#EFF9B4;" d="M113.711,88.846c-0.295-0.653-0.384-0.955-0.543-1.393c-0.137-0.399-0.269-0.795-0.385-1.18
		c-0.24-0.775-0.453-1.534-0.645-2.292c-0.386-1.515-0.711-3.015-0.966-4.52c-0.523-3.005-0.824-6.013-0.894-9.015
		c-0.161-5.996,0.632-11.972,2.334-17.561c1.699-5.595,4.37-10.758,7.678-15.248c3.345-4.478,7.277-8.311,11.537-11.541
		c-3.218,4.277-5.831,8.902-7.649,13.683c-1.787,4.797-2.745,9.747-2.817,14.605c-0.072,4.859,0.658,9.615,2.087,14.097
		c0.703,2.241,1.581,4.415,2.593,6.482c0.498,1.036,1.046,2.038,1.613,2.996c0.282,0.479,0.575,0.946,0.869,1.383
		c0.147,0.225,0.294,0.43,0.438,0.63c0.124,0.16,0.327,0.453,0.341,0.386c2.345,4.306,0.754,9.698-3.552,12.041
		C121.446,94.743,116.055,93.152,113.711,88.846z"/>
</g>
<g>
	<path style="fill:#666666;" d="M462.244,118.73c-2.546,0-4.897-1.656-5.666-4.219l-3.996-13.32
		c-0.939-3.131,0.838-6.431,3.968-7.369c3.131-0.939,6.431,0.838,7.37,3.968l3.996,13.32c0.939,3.131-0.838,6.431-3.968,7.369
		C463.381,118.648,462.808,118.73,462.244,118.73z"/>
	<path style="fill:#666666;" d="M430.276,130.718c-2.546,0-4.897-1.656-5.666-4.219l-3.996-13.32
		c-0.939-3.131,0.838-6.431,3.968-7.369c3.132-0.937,6.43,0.838,7.37,3.968l3.996,13.32c0.939,3.131-0.838,6.431-3.968,7.369
		C431.412,130.636,430.839,130.718,430.276,130.718z"/>
</g>
<g>
	<path style="fill:#EFF9B4;" d="M432.802,55.181c0.015,0.067,0.217-0.225,0.341-0.386c0.144-0.2,0.291-0.405,0.438-0.63
		c0.294-0.437,0.587-0.903,0.869-1.383c0.567-0.958,1.115-1.96,1.613-2.996c1.012-2.067,1.889-4.241,2.593-6.482
		c1.429-4.483,2.159-9.24,2.087-14.097c-0.072-4.858-1.03-9.807-2.817-14.605c-1.818-4.781-4.43-9.407-7.649-13.683
		c4.26,3.23,8.192,7.063,11.537,11.542c3.308,4.488,5.98,9.652,7.678,15.248c1.702,5.589,2.495,11.564,2.334,17.561
		c-0.07,3.002-0.37,6.009-0.894,9.015c-0.254,1.506-0.58,3.005-0.966,4.52c-0.192,0.758-0.405,1.516-0.645,2.292
		c-0.116,0.384-0.247,0.78-0.385,1.18c-0.159,0.438-0.249,0.741-0.543,1.393c-2.345,4.306-7.735,5.896-12.041,3.552
		C432.048,64.879,430.458,59.487,432.802,55.181z"/>
	<path style="fill:#EFF9B4;" d="M382.708,80.356c0.015,0.067,0.217-0.225,0.341-0.386c0.144-0.2,0.291-0.405,0.438-0.63
		c0.294-0.437,0.587-0.903,0.869-1.383c0.567-0.958,1.115-1.96,1.613-2.996c1.012-2.067,1.889-4.24,2.593-6.482
		c1.429-4.483,2.159-9.24,2.087-14.097s-1.03-9.807-2.817-14.605c-1.818-4.781-4.43-9.407-7.649-13.683
		c4.26,3.23,8.192,7.063,11.537,11.541c3.308,4.49,5.98,9.652,7.678,15.248c1.702,5.589,2.495,11.564,2.334,17.561
		c-0.07,3.002-0.37,6.009-0.894,9.015c-0.254,1.504-0.58,3.005-0.966,4.52c-0.192,0.758-0.405,1.516-0.645,2.292
		c-0.116,0.384-0.247,0.78-0.385,1.18c-0.159,0.438-0.249,0.741-0.542,1.393c-2.345,4.306-7.735,5.897-12.041,3.552
		C381.954,90.053,380.364,84.663,382.708,80.356z"/>
	<path style="fill:#EFF9B4;" d="M231.671,88.643c-0.548-0.943-0.888-1.635-1.304-2.44l-1.145-2.322
		c-0.734-1.547-1.443-3.092-2.114-4.648c-1.348-3.109-2.583-6.249-3.701-9.428c-2.219-6.36-4.047-12.851-5.168-19.487
		c-1.146-6.613-1.606-13.385-0.982-20.031c0.341-3.319,0.91-6.599,1.851-9.755c0.962-3.151,2.243-6.161,3.818-8.956
		c-0.897,3.091-1.427,6.224-1.633,9.345c-0.185,3.128,0.008,6.241,0.402,9.297c0.852,6.117,2.675,12.014,5.076,17.645
		c2.374,5.639,5.356,11.018,8.634,16.163c1.646,2.57,3.385,5.079,5.199,7.509c0.903,1.218,1.833,2.409,2.769,3.579l1.418,1.717
		c0.455,0.53,0.992,1.172,1.359,1.534c3.539,3.489,3.581,9.186,0.091,12.727c-3.489,3.539-9.188,3.581-12.727,0.091
		c-0.573-0.565-1.053-1.186-1.443-1.848L231.671,88.643z"/>
	<path style="fill:#EFF9B4;" d="M263.681,78.368c0.368-0.362,0.904-1.004,1.359-1.534l1.418-1.717
		c0.935-1.171,1.865-2.363,2.769-3.579c1.813-2.431,3.552-4.939,5.199-7.509c3.278-5.145,6.26-10.524,8.634-16.163
		c2.4-5.631,4.223-11.527,5.076-17.645c0.394-3.055,0.587-6.168,0.402-9.297c-0.206-3.121-0.736-6.254-1.633-9.345
		c1.575,2.795,2.857,5.805,3.819,8.956c0.941,3.156,1.51,6.436,1.851,9.755c0.623,6.646,0.163,13.418-0.982,20.031
		c-1.122,6.636-2.949,13.127-5.168,19.487c-1.119,3.178-2.353,6.318-3.701,9.428c-0.67,1.557-1.38,3.101-2.114,4.648l-1.145,2.322
		c-0.417,0.805-0.756,1.496-1.304,2.44l-0.38,0.655c-2.498,4.298-8.005,5.757-12.303,3.26c-4.298-2.498-5.757-8.005-3.26-12.303
		C262.622,79.561,263.138,78.91,263.681,78.368z"/>
</g>
<g>
	<path style="fill:#66B246;" d="M322.827,431.158l-25.745,9.327l-0.012,0.012v-0.012c-13.198,5.137-27.141,7.706-41.061,7.706
		c-7.99,0-15.979-0.84-23.815-2.533c0,0-0.012,0-0.012-0.012c-5.847-1.243-11.612-2.971-17.246-5.161l-25.745-9.327l23.26,2.592
		c28.949,3.225,58.165,3.225,87.114,0L322.827,431.158z"/>
	<path style="fill:#66B246;" d="M231.837,215.009c-3.407,0-6.307-2.75-6.499-6.143c-0.208-3.665,2.817-6.883,6.494-6.871
		c3.68,0.012,6.715,3.183,6.505,6.871C238.145,212.258,235.244,215.009,231.837,215.009z"/>
	<path style="fill:#66B246;" d="M280.179,215.009c-3.384,0-6.265-2.707-6.495-6.085c-0.234-3.453,2.398-6.524,5.815-6.89
		c3.55-0.38,6.788,2.288,7.152,5.827C287.038,211.626,283.957,215.009,280.179,215.009z"/>
	<path style="fill:#66B246;" d="M399.635,163.922c0,0-5.693,1.349-12.642,4.9c-10.665-13.458-15.376-33.001-15.565-33.805
		C377.358,148.037,399.635,163.922,399.635,163.922z"/>
</g>
<g>
</g>
<g>
</g>
<g>
</g>
<g>
</g>
<g>
</g>
<g>
</g>
<g>
</g>
<g>
</g>
<g>
</g>
<g>
</g>
<g>
</g>
<g>
</g>
<g>
</g>
<g>
</g>
<g>
</g>
</svg>
