<svg height="512pt" viewBox="-56 0 512 512.00122" width="512pt" xmlns="http://www.w3.org/2000/svg"><path d="m81.433594 470.472656c0-11.828125 1.058594-23.734375 3.144531-35.378906.695313-3.878906 4.304687-6.558594 8.21875-6.09375l71.625 8.480469c23.429687 2.777343 47.191406 2.777343 70.621094 0l71.625-8.480469c3.914062-.464844 7.527343 2.210938 8.222656 6.09375 2.085937 11.644531 3.140625 23.550781 3.140625 35.378906 0 11.832032-1.054688 23.734375-3.140625 35.382813-.695313 3.878906-4.308594 6.554687-8.222656 6.09375l-71.625-8.484375c-23.429688-2.773438-47.1875-2.773438-70.621094 0l-71.625 8.484375c-3.914063.464843-7.523437-2.214844-8.21875-6.09375-2.085937-11.648438-3.144531-23.550781-3.144531-35.382813zm0 0" fill="#dfdfdd"/><path d="m321.652344 433.882812c0-7.46875-6.066406-12.859374-13.480469-11.980468l-73.933594 8.757812c-22.921875 2.714844-46.085937 2.714844-69.007812 0l-73.933594-8.757812c-7.414063-.878906-13.480469 4.511718-13.480469 11.980468-1.769531 9.875-2.8125 19.847657-3.136718 29.839844-.1875 5.890625 4.1875 10.941406 10.058593 11.488282 36.734375 3.398437 89.136719 4.882812 114.996094 4.882812 25.863281 0 78.265625-1.484375 114.996094-4.882812 5.871093-.546876 10.25-5.597657 10.058593-11.488282-.324218-9.992187-1.367187-19.964844-3.136718-29.839844zm0 0" fill="#eeeeed"/><path d="m175.480469 432.648438v68.765624c0 2.214844 1.871093 3.972657 4.082031 3.824219 13.425781-.914062 26.917969-.914062 40.34375 0 2.210938.148438 4.082031-1.609375 4.082031-3.824219v-68.765624c0-2.21875-1.875-3.980469-4.085937-3.824219-13.425782.933593-26.914063.933593-40.335938 0-2.210937-.15625-4.085937 1.605469-4.085937 3.824219zm0 0" fill="#eb8d9a"/><path d="m316.011719 373.332031c52.902343-19.453125 68.203125-51.757812 64.507812-81.011719-1.0625-8.402343-9.792969-13.554687-17.75-10.65625l-71.347656 25.96875c-18.292969 6.65625-27.679687 26.949219-20.867187 45.21875 6.765624 18.140626 27.289062 27.160157 45.457031 20.480469zm0 0" fill="#ddaf89"/><path d="m83.453125 373.332031c-52.902344-19.453125-68.199219-51.757812-64.503906-81.011719 1.0625-8.402343 9.792969-13.554687 17.75-10.65625l71.347656 25.96875c18.292969 6.65625 27.679687 26.949219 20.863281 45.21875-6.761718 18.140626-27.285156 27.160157-45.457031 20.480469zm0 0" fill="#ddaf89"/><path d="m39.175781 172.449219 5.179688 47.511719c.347656 3.207031-3.332031 5.253906-5.871094 3.265624-2.714844-2.121093-6.535156-2.113281-9.242187.019532-3.941407 3.109375-9.5 3.109375-13.441407 0-2.707031-2.132813-6.523437-2.140625-9.242187-.019532-2.539063 1.988282-6.21875-.058593-5.867188-3.265624l5.175782-47.511719zm0 0" fill="#f6c273"/><path d="m3.636719 192.925781c5.242187 3.996094 11.785156 6.371094 18.886719 6.371094 7.097656 0 13.640624-2.375 18.882812-6.371094l-2.230469-20.476562h-33.308593zm0 0" fill="#e6b469"/><path d="m22.523438 153.75c-4.144532 0-7.5-3.355469-7.5-7.5v-62.765625c0-4.144531 3.355468-7.5 7.5-7.5 4.140624 0 7.5 3.355469 7.5 7.5v62.765625c0 4.144531-3.359376 7.5-7.5 7.5zm0 0" fill="#f6c273"/><path d="m44.375 168.105469c0 12.070312-9.785156 21.855469-21.851562 21.855469-12.070313 0-21.855469-9.785157-21.855469-21.855469 0-12.070313 9.785156-21.855469 21.855469-21.855469 12.066406 0 21.851562 9.785156 21.851562 21.855469zm0 0" fill="#f8e47c"/><path d="m234.960938 35.226562c0 19.453126-15.773438 35.226563-35.226563 35.226563-19.457031 0-35.226563-15.773437-35.226563-35.226563 0-19.457031 15.769532-35.226562 35.226563-35.226562 19.453125 0 35.226563 15.769531 35.226563 35.226562zm0 0" fill="#f8e47c"/><path d="m380.5625 83.484375h-361.65625c-10.441406 0-18.90625-8.464844-18.90625-18.90625v-10.445313c0-10.441406 8.464844-18.90625 18.90625-18.90625h361.65625c10.441406 0 18.902344 8.464844 18.902344 18.90625v10.445313c.003906 10.441406-8.460938 18.90625-18.902344 18.90625zm0 0" fill="#495059"/><path d="m342.8125 83.484375v69.351563c0 10.636718-8.996094 19.050781-19.609375 18.332031-26.488281-1.796875-74.046875-3.160157-105.9375 6.609375-11.410156 3.496094-23.652344 3.496094-35.0625 0-31.894531-9.769532-79.453125-8.402344-105.9375-6.609375-10.613281.71875-19.613281-7.695313-19.613281-18.332031v-69.351563zm0 0" fill="#495059"/><path d="m56.65625 152.835938c0 10.636718 8.996094 19.050781 19.605469 18.332031 15.917969-1.078125 39.449219-1.996094 62.613281-.441407-5.699219-14.054687-7.992188-31.382812-8.90625-46.804687-.464844-7.882813 5.84375-14.519531 13.742188-14.519531h199.101562v-25.917969h-286.15625zm0 0" fill="#41464f"/><path d="m344.707031 231.105469c0-76.820313-64.90625-84.855469-144.972656-84.855469s-144.976563 8.035156-144.976563 84.855469c0 37.273437 15.285157 66.277343 40.167969 86.261719 3.824219 3.074218 5.386719 8.144531 3.871094 12.8125-2.453125 7.550781-3.765625 15.5-3.765625 23.710937 0 49.136719 28.773438 80.039063 104.703125 80.039063 75.925781 0 104.703125-30.902344 104.703125-80.039063 0-8.210937-1.316406-16.160156-3.765625-23.710937-1.515625-4.667969.042969-9.738282 3.867187-12.8125 24.882813-19.984376 40.167969-48.988282 40.167969-86.261719zm0 0" fill="#ad9386"/><g fill="#998377"><path d="m127.867188 304.042969c-41.832032-29.535157-49.757813-113.378907-10.136719-150.964844-38.027344 9.226563-62.96875 30.410156-62.96875 78.027344 0 37.273437 15.285156 66.277343 40.164062 86.261719 3.824219 3.074218 5.386719 8.148437 3.871094 12.816406-2.453125 7.546875-3.765625 15.496094-3.765625 23.707031 0 49.140625 28.773438 80.039063 104.703125 80.039063 21.507813 0 39.226563-2.480469 53.585937-7.152344-83.105468 6.777344-128.15625-48.550782-117.527343-102.890625 1.484375-7.601563-1.601563-15.378907-7.925781-19.84375zm0 0"/><path d="m199.734375 350.871094c-4.144531 0-7.5-3.355469-7.5-7.5v-12.628906c0-4.140626 3.355469-7.5 7.5-7.5 4.140625 0 7.5 3.359374 7.5 7.5v12.628906c0 4.144531-3.359375 7.5-7.5 7.5zm0 0"/><path d="m160.746094 362.796875c-4.140625 0-7.5-3.355469-7.5-7.5v-12.625c0-4.144531 3.359375-7.5 7.5-7.5 4.144531 0 7.5 3.355469 7.5 7.5v12.625c0 4.144531-3.355469 7.5-7.5 7.5zm0 0"/><path d="m238.71875 362.796875c-4.140625 0-7.5-3.355469-7.5-7.5v-12.625c0-4.144531 3.359375-7.5 7.5-7.5 4.144531 0 7.5 3.355469 7.5 7.5v12.625c0 4.144531-3.355469 7.5-7.5 7.5zm0 0"/></g><path d="m192.675781 211.269531c4.359375 2.46875 9.757813 2.46875 14.117188 0 26.414062-14.972656 58.640625-7.148437 93.136719-7.148437 30.417968 0 57.367187-25.53125 66.804687-54.222656 2.597656-7.894532-4.972656-15.433594-12.761719-12.535157-52.148437 19.390625-97.746094-23.0625-145.585937 3.359375-5.402344 2.984375-11.90625 2.984375-17.308594 0-47.835937-26.421875-93.4375 16.03125-145.582031-3.359375-7.792969-2.898437-15.363282 4.640625-12.765625 12.535157 9.4375 28.691406 36.386719 54.222656 66.808593 54.222656 34.496094 0 66.71875-7.824219 93.136719 7.148437zm0 0" fill="#ddaf89"/><path d="m146.679688 263.511719c0-13.644531-13.890626-24.707031-31.023438-24.707031s-31.023438 11.0625-31.023438 24.707031c0 13.640625 13.890626 24.703125 31.023438 24.703125s31.023438-11.0625 31.023438-24.703125zm0 0" fill="#f8b8bd"/><path d="m314.832031 263.511719c0-13.644531-13.886719-24.707031-31.019531-24.707031-17.136719 0-31.023438 11.0625-31.023438 24.707031 0 13.640625 13.886719 24.703125 31.023438 24.703125 17.132812 0 31.019531-11.0625 31.019531-24.703125zm0 0" fill="#f8b8bd"/><path d="m147.023438 246.363281c-4.144532 0-7.5-3.355469-7.5-7.5 0-3.1875-2.597657-5.785156-5.785157-5.785156-3.191406 0-5.785156 2.597656-5.785156 5.785156 0 4.144531-3.359375 7.5-7.5 7.5-4.144531 0-7.5-3.355469-7.5-7.5 0-11.460937 9.324219-20.785156 20.785156-20.785156 11.460938 0 20.785157 9.324219 20.785157 20.785156 0 4.144531-3.359376 7.5-7.5 7.5zm0 0" fill="#495059"/><path d="m279.015625 246.363281c-4.144531 0-7.5-3.355469-7.5-7.5 0-3.1875-2.59375-5.785156-5.785156-5.785156-3.191407 0-5.785157 2.597656-5.785157 5.785156 0 4.144531-3.355468 7.5-7.5 7.5-4.144531 0-7.5-3.355469-7.5-7.5 0-11.460937 9.324219-20.785156 20.785157-20.785156 11.460937 0 20.785156 9.324219 20.785156 20.785156 0 4.144531-3.355469 7.5-7.5 7.5zm0 0" fill="#495059"/><path d="m187.691406 224.34375-6.695312 2.878906c-9.257813 3.984375-12.425782 15.53125-6.496094 23.679688l12.035156 16.539062c6.519532 8.957032 19.875 8.957032 26.394532 0l12.035156-16.539062c5.929687-8.148438 2.761718-19.695313-6.496094-23.679688l-6.695312-2.878906c-7.683594-3.308594-16.394532-3.308594-24.082032 0zm0 0" fill="#f6c273"/><path d="m199.734375 187.898438c-1.46875 0-2.941406-.429688-4.210937-1.292969-24.472657-16.59375-39.558594-13.761719-58.664063-10.175781-16.570313 3.105468-35.347656 6.632812-62.660156-1.195313-3.980469-1.140625-6.285157-5.296875-5.144531-9.277344 1.144531-3.980469 5.300781-6.28125 9.277343-5.140625 23.902344 6.847656 40.097657 3.8125 55.761719.871094 19.707031-3.695312 38.375-7.199219 65.640625 9.765625 27.261719-16.964844 45.933594-13.464844 65.640625-9.765625 15.664062 2.941406 31.859375 5.980469 55.761719-.871094 3.980469-1.136718 8.136719 1.160156 9.277343 5.140625 1.140626 3.984375-1.164062 8.136719-5.144531 9.277344-27.3125 7.828125-46.089843 4.304687-62.660156 1.195313-19.105469-3.585938-34.191406-6.417969-58.664063 10.175781-1.273437.863281-2.742187 1.292969-4.210937 1.292969zm0 0" fill="#c9a07d"/><path d="m155.660156 454.082031c-10.945312 0-19.820312-8.875-19.820312-19.820312v-17.433594c0-10.945313 8.875-19.820313 19.820312-19.820313 10.945313 0 19.820313 8.875 19.820313 19.820313v17.433594c0 10.945312-8.875 19.820312-19.820313 19.820312zm0 0" fill="#f6c273"/><path d="m243.808594 454.082031c-10.945313 0-19.820313-8.875-19.820313-19.820312v-17.433594c0-10.945313 8.875-19.820313 19.820313-19.820313 10.945312 0 19.820312 8.875 19.820312 19.820313v17.433594c0 10.945312-8.875 19.820312-19.820312 19.820312zm0 0" fill="#f6c273"/></svg>