<?xml version="1.0" encoding="iso-8859-1"?>
<!-- Generator: Adobe Illustrator 19.0.0, SVG Export Plug-In . SVG Version: 6.00 Build 0)  -->
<svg version="1.1" id="Capa_1" xmlns="http://www.w3.org/2000/svg" xmlns:xlink="http://www.w3.org/1999/xlink" x="0px" y="0px"
	 viewBox="0 0 354.25 354.25" style="enable-background:new 0 0 354.25 354.25;" xml:space="preserve">
<g id="XMLID_784_">
	<path id="XMLID_42_" style="fill:#8FC397;" d="M87.157,115.886c8.349,19.949,19.706,43.554,34.422,64.446
		c4.939-3.634,10.516-13.633,7.007-18.56c-2.565-3.601-9.278-3.499-14.678-1.827c4.463-4.223,8.565-11.911,5.821-16.292
		c-2.6-4.151-10.556-4.066-16.274-2.198c4.589-4.04,8.897-11.364,6.407-15.809c-2.319-4.139-9.85-4.555-15.594-3.138
		c4.525-4.07,8.698-11.27,6.239-15.659c-2.318-4.138-9.85-4.555-15.593-3.138c4.525-4.07,8.697-11.269,6.238-15.659
		c-2.825-5.043-13.387-4.56-19.026-1.964C78.002,95.082,82.7,105.238,87.157,115.886z"/>
	<path id="XMLID_41_" style="fill:#98C79C;" d="M201.518,265.468l-3.091-1.293c-5.548-2.321-8.163-8.699-5.843-14.247l13.121-39.324
		l23.18,9.697l-13.121,39.324C213.444,265.173,207.066,267.789,201.518,265.468z"/>
	<path id="XMLID_40_" style="fill:#98C79C;" d="M242.902,266.56h-3.35c-6.013,0-10.888-4.875-10.888-10.888v-50.203h25.127v50.203
		C253.791,261.685,248.916,266.56,242.902,266.56z"/>
	<path id="XMLID_39_" style="fill:#ABD1AD;" d="M122.975,265.468l-3.091-1.293c-5.548-2.321-8.163-8.699-5.843-14.247l13.121-39.324
		l23.18,9.697l-13.121,39.324C134.901,265.173,128.523,267.789,122.975,265.468z"/>
	<path id="XMLID_38_" style="fill:#ABD1AD;" d="M164.359,266.56h-3.35c-6.013,0-10.888-4.875-10.888-10.888v-41.958h25.127v41.958
		C175.247,261.685,170.372,266.56,164.359,266.56z"/>
	<path id="XMLID_785_" style="fill:#ABD1AD;" d="M353.081,257.515c-5.314-19.394-27.802-31.626-41.736-40.66
		c-7.403-4.793-43.677-50.598-95.244-63.49c-18.523-4.631-32.471-1.341-41.162,0c-33.712,5.201-35.978,28.375-51.452,20.581
		c-15.114-7.606-22.258-35.671-31.234-51.452c-9.148-16.075-16.325-41.848-30.509-51.452c-18.766-12.708-31.69-6.921-32.316,0.018
		C16.06,71.367,4.917,75.926,1.27,82.094c-1.084,0.954-1.406,2.198-1.218,3.509C0.02,85.892,0,86.183,0,86.477
		c0,8.525,13.822,15.436,30.871,15.436c5.9,0,11.398-3.652,16.1-2.264c47.553,14.038,18.373,50.63,61.692,124.616
		c5.327,9.099,17.937,12.9,28.126,12.72c5.228-0.08,103.949,15.604,105.733,5.254c1.314-7.693,38.407-19.241,78.841,3.857
		c6.735,3.847,14.915,12.853,8.511,21.884c-5.297,7.466-12.935,8.389-20.625,8.389c-17.131,0-30.511-4.764-52.125-6.036
		c-20.43-1.202-46.968-1.741-70,0c-2.099,0.159-3.871,1.606-4.453,3.629c-0.957,3.329,1.645,6.494,5.108,6.418
		c82.497-1.792,99.449,6.105,104.43,7.077c10.135,1.972,20.224,3.299,30.514,3.265C338.638,290.722,359.425,280.639,353.081,257.515
		z"/>
	<path id="XMLID_786_" style="fill:#98C79C;" d="M353.081,257.515c-5.314-19.394-27.802-31.626-41.736-40.66
		c-7.403-4.793-43.677-50.598-95.244-63.49c-17.049-4.262-30.209-1.817-38.975-0.355v88.93c29.455,3.44,64.344,6.413,65.398,0.297
		c1.314-7.693,38.407-19.241,78.841,3.857c6.735,3.847,14.915,12.853,8.511,21.884c-5.297,7.466-12.935,8.389-20.625,8.389
		c-17.131,0-30.511-4.764-52.125-6.036c-20.43-1.202-46.968-1.74-70,0c-2.099,0.159-3.871,1.606-4.453,3.629
		c-0.957,3.329,1.645,6.494,5.108,6.418c82.497-1.792,99.449,6.105,104.43,7.077c10.135,1.972,20.224,3.299,30.514,3.265
		C338.638,290.722,359.425,280.639,353.081,257.515z"/>
	<circle id="XMLID_787_" style="fill:#F6D563;" cx="217.125" cy="180.332" r="10"/>
	<circle id="XMLID_34_" style="fill:#FFE477;" cx="157.125" cy="200.332" r="10"/>
	<circle id="XMLID_788_" style="fill:#F6D563;" cx="197.125" cy="210.332" r="10"/>
	<circle id="XMLID_789_" style="fill:#F6D563;" cx="192.125" cy="185.332" r="5"/>
	<circle id="XMLID_790_" style="fill:#272525;" cx="37.125" cy="80.332" r="5"/>
</g>
<g>
</g>
<g>
</g>
<g>
</g>
<g>
</g>
<g>
</g>
<g>
</g>
<g>
</g>
<g>
</g>
<g>
</g>
<g>
</g>
<g>
</g>
<g>
</g>
<g>
</g>
<g>
</g>
<g>
</g>
</svg>
