<?xml version="1.0" encoding="iso-8859-1"?>
<!-- Generator: Adobe Illustrator 19.0.0, SVG Export Plug-In . SVG Version: 6.00 Build 0)  -->
<svg version="1.1" id="Capa_1" xmlns="http://www.w3.org/2000/svg" xmlns:xlink="http://www.w3.org/1999/xlink" x="0px" y="0px"
	 viewBox="0 0 356.918 356.918" style="enable-background:new 0 0 356.918 356.918;" xml:space="preserve">
<g id="XMLID_834_">
	<path id="XMLID_835_" style="fill:#D570A7;" d="M90,139.617c0,0,26.265-54.08,26.265-39.397c0,30.204,7.442,22.325,13.132,26.265
		C135.088,130.424,90,139.617,90,139.617z"/>
	<path id="XMLID_53_" style="fill:#D570A7;" d="M120,133.836c0,0,36.414-47.838,33.518-33.444
		c-5.957,29.611,2.893,23.354,7.695,28.339C166.015,133.716,120,133.836,120,133.836z"/>
	<path id="XMLID_52_" style="fill:#DA88B4;" d="M22.63,147.692c0,0,4.781-46.401,8.681-35.698
		c8.024,22.019,11.355,14.298,16.551,15.659S22.63,147.692,22.63,147.692z"/>
	<path id="XMLID_51_" style="fill:#D570A7;" d="M152.578,132.926c0,0,41.788-43.222,37.22-29.269
		c-9.398,28.705,0.126,23.532,4.308,29.047C198.288,138.219,152.578,132.926,152.578,132.926z"/>
	<path id="XMLID_50_" style="fill:#D2609F;" d="M190,128.913c0,0,40.08-25.263,33.971-15.437
		c-12.568,20.214-4.309,29.212-2.14,34.216C223.999,152.697,190,128.913,190,128.913z"/>
	<path id="XMLID_49_" style="fill:#D2609F;" d="M215.38,145.368c0,0,40.103-25.226,33.985-15.406
		c-12.587,20.202-4.326,18.033-2.161,23.04C249.368,158.008,215.38,145.368,215.38,145.368z"/>
	<path id="XMLID_48_" style="fill:#D2609F;" d="M240.594,160.872c0,0,40.116-25.205,33.993-15.388
		c-12.597,20.196-4.335,18.031-2.173,23.039C274.575,173.53,240.594,160.872,240.594,160.872z"/>
	<path id="XMLID_47_" style="fill:#DA88B4;" d="M111.838,245.649l-2.675-0.854c-4.802-1.533-7.452-6.668-5.919-11.47l10.837-36.034
		l20.064,6.405l-10.837,36.034C121.775,244.532,116.64,247.182,111.838,245.649z"/>
	<path id="XMLID_46_" style="fill:#D570A7;" d="M191.028,259.226h-2.808c-5.04,0-9.126-4.086-9.126-9.126l-0.634-37.623h21.061
		l0.634,37.623C200.154,255.14,196.068,259.226,191.028,259.226z"/>
	<path id="XMLID_45_" style="fill:#DA88B4;" d="M83.991,227.119l-2.176-1.775c-3.905-3.187-4.488-8.936-1.301-12.841l20.188-30.965
		l16.317,13.316l-20.188,30.965C93.646,229.723,87.897,230.305,83.991,227.119z"/>
	<path id="XMLID_44_" style="fill:#D570A7;" d="M222.821,250.899l2.613-1.03c4.689-1.848,6.992-7.148,5.144-11.837l-9.815-35.638
		l-19.594,7.723l9.815,35.638C212.832,250.444,218.131,252.747,222.821,250.899z"/>
	<path id="XMLID_43_" style="fill:#DA88B4;" d="M31.52,173.514c0,0-27.272,12.467-31.168,0
		c-3.896-12.467,25.714-35.064,31.168-46.752s17.142-25.714,15.584-15.584s0.779,24.934,15.584,31.168s40.514-10.146,62.336-15.584
		c52.476-13.078,77.92,1.558,109.088,15.584c31.168,14.026,34.729,27.272,63.559,31.168c28.83,3.896,50.955,0.282,57.968,4.178
		c7.013,3.896-15.891,11.406-42.384,11.406s-19.255-0.914-63.559,15.584c-37.59,13.998-78.841,29.246-131.237,13.01
		c-23.667-7.333-42.642-24.178-50-30C62.355,182.862,31.52,173.514,31.52,173.514z"/>
	<path id="XMLID_836_" style="fill:#D570A7;" d="M299.219,177.692c0,0,16.562-35.649,15.981-27.679
		c-0.56,7.679,15.981,27.679,15.981,27.679H299.219z"/>
	<path id="XMLID_837_" style="fill:#D570A7;" d="M319.219,180.573c0,0,12.744-29.469,13.21-22.881
		c0.46,6.5,13.21,22.881,13.21,22.881H319.219z"/>
	<path id="XMLID_40_" style="fill:#D570A7;" d="M299.219,180.573c0,0,16.562,35.649,15.981,27.679
		c-0.56-7.679,15.981-27.679,15.981-27.679H299.219z"/>
	<path id="XMLID_39_" style="fill:#D570A7;" d="M319.219,177.692c0,0,12.744,29.469,13.21,22.881
		c0.46-6.5,13.21-22.881,13.21-22.881H319.219z"/>
	<path id="XMLID_838_" d="M31.639,145.692c-3.309,0-6,2.691-6,6s2.691,6,6,6s6-2.691,6-6S34.948,145.692,31.639,145.692z"/>
	<path id="XMLID_839_" style="fill:#D2609F;" d="M194.106,132.704c-4.182-5.515-13.706-0.342-4.308-29.047
		c1.845-5.634-3.87-1.945-11.339,4.456v26.95C187.939,135.472,195.968,135.16,194.106,132.704z"/>
	<path id="XMLID_840_" style="fill:#D570A7;" d="M355.639,177.692c-7.013-3.896-29.137-0.282-57.968-4.178
		c-28.831-3.896-32.392-17.143-63.56-31.168c-18.311-8.24-34.652-16.683-55.653-19.601v101.223
		c25.996-2.49,49.245-11.097,71.237-19.286c44.304-16.498,37.067-15.584,63.56-15.584
		C339.748,189.098,362.652,181.588,355.639,177.692z"/>
	<circle id="XMLID_841_" style="fill:#F6D563;" cx="198.459" cy="157.692" r="10"/>
	<circle id="XMLID_34_" style="fill:#FFE477;" cx="148.459" cy="177.692" r="10"/>
	<circle id="XMLID_842_" style="fill:#F6D563;" cx="188.459" cy="187.692" r="10"/>
	<circle id="XMLID_843_" style="fill:#FFE477;" cx="173.459" cy="162.692" r="5"/>
	<circle id="XMLID_844_" style="fill:#F6D563;" cx="213.459" cy="182.692" r="5"/>
</g>
<g>
</g>
<g>
</g>
<g>
</g>
<g>
</g>
<g>
</g>
<g>
</g>
<g>
</g>
<g>
</g>
<g>
</g>
<g>
</g>
<g>
</g>
<g>
</g>
<g>
</g>
<g>
</g>
<g>
</g>
</svg>
